inDegrees=no
num_controls=7
num_derivatives=13
num_iterations=317
num_multipliers=7
num_parameters=0
num_slacks=7
num_states=26
objective=5.885344
objective_accelerations=0.664400
objective_balance=0.088475
objective_effort=0.500988
objective_height=4.528830
objective_ligament=0.102650
solver_duration=3546.640081
status=Solve_Succeeded
success=true
DataType=double
version=3
OpenSimVersion=4.4-2022-07-23-0e9fedc
endheader
time	/jointset/ground_pelvis/pelvis_tilt/value	/jointset/ground_pelvis/pelvis_tx/value	/jointset/ground_pelvis/pelvis_ty/value	/jointset/hip_l/hip_flexion_l/value	/jointset/hip_l/hip_adduction_l/value	/jointset/hip_l/hip_rotation_l/value	/jointset/back/lumbar_extension/value	/jointset/patellofemoral_l/patellar_flexion_l/value	/jointset/knee_l/knee_flexion_l/value	/jointset/knee_l/knee_adduction_l/value	/jointset/knee_l/knee_rotation_l/value	/jointset/ankle_l/ankle_angle_l/value	/jointset/subtalar_l/subtalar_angle_l/value	/jointset/ground_pelvis/pelvis_tilt/speed	/jointset/ground_pelvis/pelvis_tx/speed	/jointset/ground_pelvis/pelvis_ty/speed	/jointset/hip_l/hip_flexion_l/speed	/jointset/hip_l/hip_adduction_l/speed	/jointset/hip_l/hip_rotation_l/speed	/jointset/back/lumbar_extension/speed	/jointset/patellofemoral_l/patellar_flexion_l/speed	/jointset/knee_l/knee_flexion_l/speed	/jointset/knee_l/knee_adduction_l/speed	/jointset/knee_l/knee_rotation_l/speed	/jointset/ankle_l/ankle_angle_l/speed	/jointset/subtalar_l/subtalar_angle_l/speed	/forceset/tau_hip_flexion_l	/forceset/tau_hip_adduction_l	/forceset/tau_hip_rotation_l	/forceset/tau_knee_flexion_l	/forceset/tau_ankle_angle_l	/forceset/tau_subtalar_angle_l	/forceset/tau_lumbar_extension	lambda_cid13_p0	lambda_cid13_p1	lambda_cid13_p2	lambda_cid13_p3	lambda_cid13_p4	lambda_cid13_p5	lambda_cid14_p0	/jointset/ground_pelvis/pelvis_tilt/accel	/jointset/ground_pelvis/pelvis_tx/accel	/jointset/ground_pelvis/pelvis_ty/accel	/jointset/hip_l/hip_flexion_l/accel	/jointset/hip_l/hip_adduction_l/accel	/jointset/hip_l/hip_rotation_l/accel	/jointset/back/lumbar_extension/accel	/jointset/patellofemoral_l/patellar_flexion_l/accel	/jointset/knee_l/knee_flexion_l/accel	/jointset/knee_l/knee_adduction_l/accel	/jointset/knee_l/knee_rotation_l/accel	/jointset/ankle_l/ankle_angle_l/accel	/jointset/subtalar_l/subtalar_angle_l/accel	gamma_cid13_p0	gamma_cid13_p1	gamma_cid13_p2	gamma_cid13_p3	gamma_cid13_p4	gamma_cid13_p5	gamma_cid14_p0
1	-0.7612380936947413	-0.1710658791018301	0.5741156196773299	2.094394990539393	-0.3035053221180528	0.1127131959536071	-0.4363306772798503	1.147102744122452	1.147102744122449	-0.1745255766245851	0.1745309231537756	0.0005102423886383889	-0.05534198836286183	-0.01070210939030531	0.001044750970541289	-0.003009111511637245	0.01623753887862374	0.0007491317541399771	0.003417593221258715	-3.718269445495691e-06	0.008643939165622486	0.008643939165622751	1.086905413322546e-05	3.45838620463214e-06	0.003840066621663381	0.001418411173790942	-0.495245809443736	-0.003368951790373869	-0.0170018547124292	-0.2116847776111227	0.1885254023348444	0.03310185299042528	0.3821995327046574	13.33011333053208	-16.43629490071929	1.905177853268217	5.305788478757258	-734.9475568278098	-41.4423481640329	-2.103289954474937	2.161205317019342	0.3393864859208788	1.741162564838318	-6.634522284036076	-0.3085915919665016	-1.644012406961423	-0.01725302154518742	-4.434644544060882	-4.434644544060881	-0.03472760071165688	0.01228605151616527	-0.2235192914070258	-0.3033725772676131	7.498419855206217e-10	3.27401893242272e-09	-4.932999829540537e-09	2.281911204980995e-10	7.305926529964536e-10	-2.357843524793513e-09	1.333265467152051e-09
1.01	-0.7612377451593678	-0.1710384989284782	0.5741725304971486	2.094226385136033	-0.3035124134818348	0.112664561489125	-0.4363306680771815	1.146967503632308	1.146967503632307	-0.1745254083633979	0.1745309192001618	0.0005376804226007802	-0.05534207603836213	0.01078591742466174	0.004436731824161828	0.01439437587019741	-0.04997964333255643	-0.002165964657552831	-0.01314337249802103	5.453135493956057e-06	-0.0356937734849324	-0.03569377348493243	2.155732504202626e-05	-3.875589891515125e-06	0.001652940457022173	-0.001433396739672209	-0.4953663906770157	-0.003337256447625754	-0.01700954221111201	-0.211678023017321	0.1886083795290527	0.03313441984337461	0.3823340259803283	13.35382861054308	-16.45559200471714	1.909397546619633	5.213982824325458	-735.05819032229	-41.47441621532779	-2.107510534759053	2.144716183660073	0.3399216830067104	1.740405848949711	-6.618470196609194	-0.282753710332538	-1.661974927507995	0.009986368529863137	-4.433594318462927	-4.433594318462966	0.01878158334937947	-0.007191000561396694	-0.2154990995244094	-0.2757034716284882	-2.777800836096424e-09	-4.564861934718571e-09	1.47053214221028e-08	2.869700506939365e-09	-5.116630908495943e-09	1.904637527678382e-08	-3.70255296517144e-09
1.02	-0.7610220933918599	-0.1709770353870054	0.5744035689956041	2.093394977109173	-0.3035486128186461	0.1124503501128296	-0.4363305703309207	1.146388834077076	1.146388834077077	-0.1745251703110202	0.1745308523311502	0.0005434092308103502	-0.05537060550764562	0.0323585370366162	0.007861424594747307	0.03181642421577591	-0.1163229858217444	-0.005072462851719881	-0.02969778914117107	1.399042108697599e-05	-0.08004187385189324	-0.08004187385189351	2.482729024014213e-05	-9.124701543030468e-06	-0.0005017785288890462	-0.004269947582848451	-0.4954869719102982	-0.003305561104879772	-0.01701722970980243	-0.2116712684235191	0.1886913567232604	0.03316698669632173	0.3824685192559959	13.37332628684184	-16.47474585806084	1.91427451568064	5.126376519782518	-735.2290596368206	-41.4798366656867	-2.125570085672983	2.178123876416826	0.3459288693138658	1.74487475758709	-6.659754339637635	-0.3068719484613403	-1.642702591735455	-0.01737984541473579	-4.436722087342079	-4.43672208734207	-0.03621126185380245	0.01270302440506536	-0.2170378556610276	-0.3003211632102212	-5.168290023852466e-09	-1.250190193315506e-08	3.449452246344846e-08	2.507918169581196e-09	-9.677369934299942e-09	4.016238423284515e-08	-8.904995808415466e-09
1.03	-0.7605903035344813	-0.1708811390094044	0.5748088504475168	2.091899664497239	-0.3036137902872171	0.1120706820221873	-0.436330397765027	1.14536672782079	1.145366727820782	-0.1745249432122723	0.1745307480646966	0.0005277023343756921	-0.05542739029095376	0.05401304527811253	0.01132560178011879	0.04923601814354894	-0.182745238076941	-0.00795672928144754	-0.04622999728423044	1.905994790140082e-05	-0.1243712590022022	-0.1243712590022026	2.011897724101777e-05	-1.098041137517445e-05	-0.002638876809691049	-0.007080522193785906	-0.4951750196474288	-0.003221888807215948	-0.01704437630243814	-0.2116757480574454	0.1888511679329516	0.033263384391335	0.3823418582676469	13.43982180396797	-16.53177911250346	1.927393292623342	4.980484799262761	-735.0785565019519	-41.56199388438316	-2.157708385266498	2.161154517259828	0.3478251920891716	1.739921634337724	-6.634317617942112	-0.2782632550001052	-1.657617094910069	0.009230931042487203	-4.429826114988469	-4.429826114988487	0.01732275017331703	-0.006531809770908146	-0.2119363775643658	-0.2704557754896583	-7.547175603099718e-09	-2.043994355538026e-08	5.428526309448496e-08	2.115489998306689e-09	-1.422498156688262e-08	6.12754522721155e-08	-1.410913890075052e-08
